<svg width="232" height="32" viewBox="0 0 232 32" fill="none" xmlns="http://www.w3.org/2000/svg">
<path d="M26.2741 28.4C25.9807 28.4 25.7407 28.3067 25.5541 28.12C25.3674 27.9333 25.2741 27.6933 25.2741 27.4V8.6C25.2741 8.33333 25.3674 8.10667 25.5541 7.92C25.7407 7.70667 25.9807 7.6 26.2741 7.6H30.8741C31.1674 7.6 31.4074 7.70667 31.5941 7.92C31.7807 8.10667 31.8741 8.33333 31.8741 8.6V10.2C32.5941 9.37333 33.4474 8.73333 34.4341 8.28C35.4474 7.82667 36.5807 7.6 37.8341 7.6H39.5941C39.8607 7.6 40.0874 7.69333 40.2741 7.88C40.4874 8.06667 40.5941 8.30667 40.5941 8.6V12.72C40.5941 12.9867 40.4874 13.2267 40.2741 13.44C40.0874 13.6267 39.8607 13.72 39.5941 13.72H35.7141C34.6207 13.72 33.7674 14.0267 33.1541 14.64C32.5674 15.2267 32.2741 16.0667 32.2741 17.16V27.4C32.2741 27.6933 32.1674 27.9333 31.9541 28.12C31.7674 28.3067 31.5274 28.4 31.2341 28.4H26.2741Z" fill="#07E092"/>
<path d="M49.3266 28.8C47.8866 28.8 46.5932 28.5333 45.4466 28C44.3266 27.44 43.4332 26.6933 42.7666 25.76C42.0999 24.8267 41.7666 23.7733 41.7666 22.6C41.7666 20.7067 42.5399 19.2133 44.0866 18.12C45.6332 17 47.6866 16.24 50.2466 15.84L55.2466 15.08V14.52C55.2466 13.56 55.0466 12.8267 54.6466 12.32C54.2466 11.8133 53.5132 11.56 52.4466 11.56C51.6999 11.56 51.0866 11.7067 50.6066 12C50.1532 12.2933 49.7932 12.6933 49.5266 13.2C49.2866 13.5467 48.9532 13.72 48.5266 13.72H44.0466C43.7532 13.72 43.5266 13.64 43.3666 13.48C43.2066 13.2933 43.1399 13.08 43.1666 12.84C43.1666 12.36 43.3399 11.8133 43.6866 11.2C44.0599 10.56 44.6199 9.93333 45.3666 9.32C46.1132 8.70667 47.0732 8.2 48.2466 7.8C49.4199 7.4 50.8332 7.2 52.4866 7.2C54.2199 7.2 55.6999 7.4 56.9266 7.8C58.1532 8.2 59.1399 8.76 59.8866 9.48C60.6599 10.2 61.2332 11.0533 61.6066 12.04C61.9799 13 62.1666 14.0667 62.1666 15.24V27.4C62.1666 27.6933 62.0599 27.9333 61.8466 28.12C61.6599 28.3067 61.4332 28.4 61.1666 28.4H56.5266C56.2332 28.4 55.9932 28.3067 55.8066 28.12C55.6199 27.9333 55.5266 27.6933 55.5266 27.4V26C55.1799 26.5067 54.7132 26.9733 54.1266 27.4C53.5399 27.8267 52.8466 28.16 52.0466 28.4C51.2732 28.6667 50.3666 28.8 49.3266 28.8ZM51.2066 24.24C51.9799 24.24 52.6732 24.08 53.2866 23.76C53.9266 23.4133 54.4199 22.8933 54.7666 22.2C55.1399 21.48 55.3266 20.5867 55.3266 19.52V18.96L51.9266 19.56C50.6732 19.7733 49.7532 20.1067 49.1666 20.56C48.6066 20.9867 48.3266 21.4933 48.3266 22.08C48.3266 22.5333 48.4599 22.92 48.7266 23.24C48.9932 23.56 49.3399 23.8133 49.7666 24C50.1932 24.16 50.6732 24.24 51.2066 24.24Z" fill="#07E092"/>
<path d="M75.2403 28.8C73.507 28.8 72.027 28.6133 70.8003 28.24C69.6003 27.84 68.6137 27.36 67.8403 26.8C67.0937 26.24 66.5337 25.6667 66.1603 25.08C65.787 24.4667 65.587 23.9467 65.5603 23.52C65.5337 23.2267 65.627 22.9867 65.8403 22.8C66.0537 22.5867 66.2803 22.48 66.5203 22.48H71.0803C71.1603 22.48 71.227 22.4933 71.2803 22.52C71.3337 22.5467 71.4137 22.6 71.5203 22.68C71.867 22.8667 72.2137 23.1067 72.5603 23.4C72.907 23.6667 73.307 23.9067 73.7603 24.12C74.2137 24.3333 74.7603 24.44 75.4003 24.44C76.147 24.44 76.7737 24.2933 77.2803 24C77.787 23.7067 78.0403 23.2667 78.0403 22.68C78.0403 22.2533 77.9203 21.9067 77.6803 21.64C77.4403 21.3467 76.947 21.0667 76.2003 20.8C75.4803 20.5333 74.387 20.2667 72.9203 20C71.5337 19.68 70.3203 19.2667 69.2803 18.76C68.2403 18.2267 67.4403 17.5467 66.8803 16.72C66.3203 15.8667 66.0403 14.84 66.0403 13.64C66.0403 12.5733 66.387 11.5467 67.0803 10.56C67.7737 9.57333 68.787 8.77333 70.1203 8.16C71.4537 7.52 73.0937 7.2 75.0403 7.2C76.587 7.2 77.9203 7.38667 79.0403 7.76C80.187 8.10667 81.147 8.56 81.9203 9.12C82.7203 9.68 83.3203 10.2533 83.7203 10.84C84.1203 11.4267 84.3337 11.96 84.3603 12.44C84.387 12.7067 84.307 12.9467 84.1203 13.16C83.9337 13.3467 83.7203 13.44 83.4803 13.44H79.3203C79.2137 13.44 79.107 13.4267 79.0003 13.4C78.8937 13.3467 78.8003 13.2933 78.7203 13.24C78.4003 13.08 78.0803 12.8667 77.7603 12.6C77.4403 12.3333 77.067 12.0933 76.6403 11.88C76.2137 11.6667 75.6803 11.56 75.0403 11.56C74.3203 11.56 73.7603 11.72 73.3603 12.04C72.9603 12.36 72.7603 12.7733 72.7603 13.28C72.7603 13.6267 72.867 13.9467 73.0803 14.24C73.3203 14.5333 73.787 14.8 74.4803 15.04C75.2003 15.28 76.307 15.5467 77.8003 15.84C79.6403 16.1333 81.107 16.6133 82.2003 17.28C83.2937 17.92 84.067 18.68 84.5203 19.56C84.9737 20.4133 85.2003 21.32 85.2003 22.28C85.2003 23.56 84.8137 24.6933 84.0403 25.68C83.2937 26.6667 82.1737 27.44 80.6803 28C79.187 28.5333 77.3737 28.8 75.2403 28.8Z" fill="#07E092"/>
<path d="M114.204 28.4C113.91 28.4 113.67 28.3067 113.484 28.12C113.297 27.9333 113.204 27.6933 113.204 27.4V8.6C113.204 8.30667 113.297 8.06667 113.484 7.88C113.67 7.69333 113.91 7.6 114.204 7.6H118.564C118.857 7.6 119.097 7.69333 119.284 7.88C119.47 8.06667 119.564 8.30667 119.564 8.6V9.96C120.097 9.24 120.844 8.61333 121.804 8.08C122.764 7.52 123.897 7.22667 125.204 7.2C128.27 7.14667 130.377 8.30667 131.524 10.68C132.137 9.66667 133.017 8.84 134.164 8.2C135.31 7.53333 136.564 7.2 137.924 7.2C139.31 7.2 140.55 7.52 141.644 8.16C142.764 8.77333 143.657 9.73333 144.324 11.04C144.99 12.32 145.324 13.9867 145.324 16.04V27.4C145.324 27.6933 145.217 27.9333 145.004 28.12C144.817 28.3067 144.59 28.4 144.324 28.4H139.684C139.39 28.4 139.137 28.3067 138.924 28.12C138.737 27.9333 138.644 27.6933 138.644 27.4V16.32C138.644 15.3867 138.51 14.6533 138.244 14.12C137.977 13.56 137.617 13.16 137.164 12.92C136.71 12.68 136.19 12.56 135.604 12.56C135.124 12.56 134.644 12.68 134.164 12.92C133.71 13.16 133.337 13.56 133.044 14.12C132.777 14.6533 132.644 15.3867 132.644 16.32V27.4C132.644 27.6933 132.55 27.9333 132.364 28.12C132.177 28.3067 131.937 28.4 131.644 28.4H127.004C126.71 28.4 126.47 28.3067 126.284 28.12C126.097 27.9333 126.004 27.6933 126.004 27.4V16.32C126.004 15.3867 125.857 14.6533 125.564 14.12C125.27 13.56 124.897 13.16 124.444 12.92C123.99 12.68 123.484 12.56 122.924 12.56C122.444 12.56 121.964 12.68 121.484 12.92C121.03 13.16 120.657 13.56 120.364 14.12C120.097 14.6533 119.964 15.3733 119.964 16.28V27.4C119.964 27.6933 119.857 27.9333 119.644 28.12C119.457 28.3067 119.217 28.4 118.924 28.4H114.204Z" fill="#07E092"/>
<path d="M159.405 28.8C156.259 28.8 153.752 27.9467 151.885 26.24C150.019 24.5333 149.045 22 148.965 18.64C148.965 18.4533 148.965 18.2133 148.965 17.92C148.965 17.6267 148.965 17.4 148.965 17.24C149.045 15.1333 149.512 13.3333 150.365 11.84C151.245 10.32 152.445 9.17333 153.965 8.4C155.512 7.6 157.312 7.2 159.365 7.2C161.712 7.2 163.645 7.66667 165.165 8.6C166.712 9.53333 167.872 10.8 168.645 12.4C169.419 14 169.805 15.8267 169.805 17.88V18.84C169.805 19.1333 169.699 19.3733 169.485 19.56C169.299 19.7467 169.072 19.84 168.805 19.84H156.005C156.005 19.8667 156.005 19.9067 156.005 19.96C156.005 20.0133 156.005 20.0667 156.005 20.12C156.032 20.8933 156.165 21.6 156.405 22.24C156.645 22.88 157.019 23.3867 157.525 23.76C158.032 24.1333 158.645 24.32 159.365 24.32C159.899 24.32 160.339 24.24 160.685 24.08C161.059 23.8933 161.365 23.6933 161.605 23.48C161.845 23.24 162.032 23.04 162.165 22.88C162.405 22.6133 162.592 22.4533 162.725 22.4C162.885 22.32 163.125 22.28 163.445 22.28H168.405C168.672 22.28 168.885 22.36 169.045 22.52C169.232 22.6533 169.312 22.8533 169.285 23.12C169.259 23.5733 169.032 24.12 168.605 24.76C168.179 25.4 167.552 26.04 166.725 26.68C165.925 27.2933 164.912 27.8 163.685 28.2C162.459 28.6 161.032 28.8 159.405 28.8ZM156.005 15.88H162.765V15.8C162.765 14.9467 162.632 14.2 162.365 13.56C162.125 12.92 161.739 12.4267 161.205 12.08C160.699 11.7333 160.085 11.56 159.365 11.56C158.645 11.56 158.032 11.7333 157.525 12.08C157.045 12.4267 156.672 12.92 156.405 13.56C156.139 14.2 156.005 14.9467 156.005 15.8V15.88Z" fill="#07E092"/>
<path d="M184.156 28.4C182.45 28.4 180.97 28.1333 179.716 27.6C178.49 27.04 177.543 26.1867 176.876 25.04C176.21 23.8667 175.876 22.36 175.876 20.52V12.84H172.756C172.463 12.84 172.21 12.7467 171.996 12.56C171.81 12.3733 171.716 12.1333 171.716 11.84V8.6C171.716 8.30667 171.81 8.06667 171.996 7.88C172.21 7.69333 172.463 7.6 172.756 7.6H175.876V0.999999C175.876 0.706666 175.97 0.466667 176.156 0.280001C176.37 0.0933337 176.61 0 176.876 0H181.516C181.81 0 182.05 0.0933337 182.236 0.280001C182.423 0.466667 182.516 0.706666 182.516 0.999999V7.6H187.516C187.81 7.6 188.05 7.69333 188.236 7.88C188.423 8.06667 188.516 8.30667 188.516 8.6V11.84C188.516 12.1333 188.423 12.3733 188.236 12.56C188.05 12.7467 187.81 12.84 187.516 12.84H182.516V19.96C182.516 20.8667 182.69 21.5867 183.036 22.12C183.383 22.6533 183.97 22.92 184.796 22.92H187.876C188.17 22.92 188.41 23.0133 188.596 23.2C188.783 23.3867 188.876 23.6267 188.876 23.92V27.4C188.876 27.6933 188.783 27.9333 188.596 28.12C188.41 28.3067 188.17 28.4 187.876 28.4H184.156Z" fill="#07E092"/>
<path d="M201.788 28.8C198.641 28.8 196.135 27.9467 194.268 26.24C192.401 24.5333 191.428 22 191.348 18.64C191.348 18.4533 191.348 18.2133 191.348 17.92C191.348 17.6267 191.348 17.4 191.348 17.24C191.428 15.1333 191.895 13.3333 192.748 11.84C193.628 10.32 194.828 9.17333 196.348 8.4C197.895 7.6 199.695 7.2 201.748 7.2C204.095 7.2 206.028 7.66667 207.548 8.6C209.095 9.53333 210.255 10.8 211.028 12.4C211.801 14 212.188 15.8267 212.188 17.88V18.84C212.188 19.1333 212.081 19.3733 211.868 19.56C211.681 19.7467 211.455 19.84 211.188 19.84H198.388C198.388 19.8667 198.388 19.9067 198.388 19.96C198.388 20.0133 198.388 20.0667 198.388 20.12C198.415 20.8933 198.548 21.6 198.788 22.24C199.028 22.88 199.401 23.3867 199.908 23.76C200.415 24.1333 201.028 24.32 201.748 24.32C202.281 24.32 202.721 24.24 203.068 24.08C203.441 23.8933 203.748 23.6933 203.988 23.48C204.228 23.24 204.415 23.04 204.548 22.88C204.788 22.6133 204.975 22.4533 205.108 22.4C205.268 22.32 205.508 22.28 205.828 22.28H210.788C211.055 22.28 211.268 22.36 211.428 22.52C211.615 22.6533 211.695 22.8533 211.668 23.12C211.641 23.5733 211.415 24.12 210.988 24.76C210.561 25.4 209.935 26.04 209.108 26.68C208.308 27.2933 207.295 27.8 206.068 28.2C204.841 28.6 203.415 28.8 201.788 28.8ZM198.388 15.88H205.148V15.8C205.148 14.9467 205.015 14.2 204.748 13.56C204.508 12.92 204.121 12.4267 203.588 12.08C203.081 11.7333 202.468 11.56 201.748 11.56C201.028 11.56 200.415 11.7333 199.908 12.08C199.428 12.4267 199.055 12.92 198.788 13.56C198.521 14.2 198.388 14.9467 198.388 15.8V15.88Z" fill="#07E092"/>
<path d="M216.938 28.4C216.645 28.4 216.405 28.3067 216.218 28.12C216.031 27.9333 215.938 27.6933 215.938 27.4V8.6C215.938 8.33333 216.031 8.10667 216.218 7.92C216.405 7.70667 216.645 7.6 216.938 7.6H221.538C221.831 7.6 222.071 7.70667 222.258 7.92C222.445 8.10667 222.538 8.33333 222.538 8.6V10.2C223.258 9.37333 224.111 8.73333 225.098 8.28C226.111 7.82667 227.245 7.6 228.498 7.6H230.258C230.525 7.6 230.751 7.69333 230.938 7.88C231.151 8.06667 231.258 8.30667 231.258 8.6V12.72C231.258 12.9867 231.151 13.2267 230.938 13.44C230.751 13.6267 230.525 13.72 230.258 13.72H226.378C225.285 13.72 224.431 14.0267 223.818 14.64C223.231 15.2267 222.938 16.0667 222.938 17.16V27.4C222.938 27.6933 222.831 27.9333 222.618 28.12C222.431 28.3067 222.191 28.4 221.898 28.4H216.938Z" fill="#07E092"/>
<path d="M98.5 7.83749C92.6668 7.83749 87.9375 12.5668 87.9375 18.4C87.9375 24.2332 92.6668 28.9625 98.5 28.9625C104.333 28.9625 109.062 24.2332 109.062 18.4C109.062 12.5668 104.333 7.83749 98.5 7.83749ZM103.375 20.025H98.5C98.2845 20.025 98.0778 19.9394 97.9255 19.787C97.7731 19.6346 97.6875 19.428 97.6875 19.2125V11.9C97.6875 11.6845 97.7731 11.4778 97.9255 11.3255C98.0778 11.1731 98.2845 11.0875 98.5 11.0875C98.7155 11.0875 98.9222 11.1731 99.0745 11.3255C99.2269 11.4778 99.3125 11.6845 99.3125 11.9V18.4H103.375C103.59 18.4 103.797 18.4856 103.95 18.638C104.102 18.7903 104.188 18.997 104.188 19.2125C104.188 19.428 104.102 19.6346 103.95 19.787C103.797 19.9394 103.59 20.025 103.375 20.025Z" fill="#07E092"/>
<path d="M11.5 9C6.53125 9 2.5 13.0312 2.5 18C2.5 22.9688 6.53125 27 11.5 27C16.4688 27 20.5 22.9688 20.5 18C20.5 13.0312 16.4688 9 11.5 9Z" stroke="#07E092" stroke-width="5" stroke-miterlimit="10"/>
</svg>
